<svg xmlns="http://www.w3.org/2000/svg" viewBox="0 0 512 512"><path d="M191.999 512h-.363c-5.888-.197-10.501-5.129-10.304-11.017v-.012a57.748 57.748 0 0126.496-51.456c5.103-2.943 11.626-1.191 14.569 3.912a10.667 10.667 0 01-3.582 14.371 37.95 37.95 0 00-16.149 33.899c-.196 5.748-4.915 10.306-10.667 10.303z" fill="#00897b"/><path d="M359.722 205.781a47.144 47.144 0 00-31.424-13.333 37.138 37.138 0 00-28.181 8.96 19.054 19.054 0 00-5.803 15.083 24.044 24.044 0 007.68 15.04c14.4 14.421 11.755 26.283-10.859 48.917a10.668 10.668 0 007.531 18.219 10.86 10.86 0 003.221-.491c19.029-6.037 64-23.339 71.424-53.333a40.087 40.087 0 00-13.589-39.062z" fill="#009688"/><path d="M490.666 128a127.421 127.421 0 01-61.355-31.339A127.598 127.598 0 00362.666 64c-34.368 0-88.981 30.464-106.667 40.875C238.314 94.464 183.7 64 149.332 64a127.595 127.595 0 00-66.645 32.661A127.421 127.421 0 0121.332 128c-5.891-.006-10.671 4.765-10.677 10.656a10.667 10.667 0 008.544 10.464 1325.146 1325.146 0 00236.8 21.547 1324.962 1324.962 0 00236.8-21.547c5.773-1.172 9.503-6.803 8.331-12.576A10.668 10.668 0 00490.666 128z" fill="#b0bec5"/><g fill="#607d8b"><circle cx="255.999" cy="53.333" r="53.333"/><path d="M255.999 512c-5.891 0-10.667-4.776-10.667-10.667V96c0-5.891 4.776-10.667 10.667-10.667S266.666 90.109 266.666 96v405.333c0 5.891-4.776 10.667-10.667 10.667z"/></g><path d="M350.527 360.683c-4.096-31.04-47.381-45.995-75.989-55.893-5.824-2.027-10.816-3.733-14.251-5.227-24.832-10.965-53.525-33.685-56.64-51.2a17.28 17.28 0 016.4-16.555c8.857-6.551 10.727-19.041 4.176-27.898a19.873 19.873 0 00-1.382-1.67c-18.164-13.724-43.591-12.289-60.096 3.392a36.63 36.63 0 00-13.035 36.117c9.813 43.627 101.717 74.197 112.896 77.781 3.797 1.6 8.917 3.413 14.933 5.525 20.779 7.168 59.435 20.544 61.867 38.528 1.472 11.136-11.563 26.645-36.693 43.691-4.878 3.311-6.148 9.949-2.837 14.827 3.311 4.878 9.949 6.148 14.827 2.837 33.515-22.847 48.533-43.839 45.824-64.255z" fill="#00897b"/><path d="M319.999 512a10.826 10.826 0 01-1.984-.192c-5.79-1.079-9.611-6.647-8.533-12.437.171-1.216 4.373-33.771-56.555-51.819-60.117-17.813-90.731-39.04-93.632-64.917-2.368-21.333 14.059-41.856 48.789-61.291 5.143-2.875 11.643-1.036 14.517 4.107s1.036 11.643-4.107 14.517c-25.408 14.208-39.253 28.885-37.995 40.32.811 7.317 10.091 26.539 78.485 46.805 80.299 23.787 71.851 74.069 71.445 76.181a10.663 10.663 0 01-10.43 8.726z" fill="#009688"/></svg>